<svg xmlns="http://www.w3.org/2000/svg" width="24.179" height="24" viewBox="0 0 24.179 24"><defs><style>.a{opacity:0.2;}.b{fill:#7f7f7f;}</style></defs><g class="a" transform="translate(0 -0.178)"><path class="b" d="M13.127,1.883,2.055.2A1.786,1.786,0,0,0,.625.593,1.8,1.8,0,0,0,0,1.943V23.171a1.01,1.01,0,0,0,1.007,1.007H4.282V18.889a1.759,1.759,0,0,1,1.763-1.763H8.564a1.759,1.759,0,0,1,1.763,1.763v5.289h4.282V3.626a1.764,1.764,0,0,0-1.481-1.743ZM5.541,14.859H4.03a.756.756,0,0,1,0-1.511H5.541a.756.756,0,1,1,0,1.511Zm0-3.022H4.03a.756.756,0,0,1,0-1.511H5.541a.756.756,0,0,1,0,1.511Zm0-3.022H4.03a.756.756,0,0,1,0-1.511H5.541a.756.756,0,0,1,0,1.511Zm0-3.022H4.03a.756.756,0,1,1,0-1.511H5.541a.756.756,0,0,1,0,1.511Zm5.037,9.067H9.067a.756.756,0,0,1,0-1.511h1.511a.756.756,0,1,1,0,1.511Zm0-3.022H9.067a.756.756,0,0,1,0-1.511h1.511a.756.756,0,0,1,0,1.511Zm0-3.022H9.067a.756.756,0,0,1,0-1.511h1.511a.756.756,0,0,1,0,1.511Zm0-3.022H9.067a.756.756,0,0,1,0-1.511h1.511a.756.756,0,1,1,0,1.511Z"/><path class="b" d="M22.673,10.853,15.5,9.351V24.109h6.8a1.765,1.765,0,0,0,1.763-1.763v-9.77A1.754,1.754,0,0,0,22.673,10.853ZM20.285,21.087H18.774a.756.756,0,1,1,0-1.511h1.511a.756.756,0,0,1,0,1.511Zm0-3.022H18.774a.756.756,0,1,1,0-1.511h1.511c.417,0,.756.756.756.756S20.7,18.065,20.285,18.065Zm0-3.022H18.774a.756.756,0,1,1,0-1.511h1.511a.756.756,0,1,1,0,1.511Z" transform="translate(0.116 0.069)"/><rect class="b" width="10" height="13" transform="translate(3 2.287)"/><rect class="b" width="5" height="11" transform="translate(17 11.287)"/></g></svg>