<svg xmlns="http://www.w3.org/2000/svg" xmlns:xlink="http://www.w3.org/1999/xlink" width="414" height="236" viewBox="0 0 414 236"><defs><style>.a,.c{fill:#fff;}.a{stroke:#707070;}.b{clip-path:url(#a);}</style><clipPath id="a"><rect class="a" width="414" height="236"/></clipPath></defs><g class="b"><g transform="translate(65.771 70)"><path class="c" d="M193.415,337.316a26.335,26.335,0,0,0,6.858-1.3c.406-.116.8-.226,1.165-.326,4.466-1.209,6.623-3.66,5.918-6.723a.569.569,0,0,0-.278-.37,3.524,3.524,0,0,0-1.652-.432l.076-.063a6.008,6.008,0,0,0,1.918-4.376,3.831,3.831,0,0,0,3.091,2.045.569.569,0,0,0,.466-.168,3.885,3.885,0,0,0,1.089-2.181c.02.4.039.812.057,1.225s.038.84.059,1.27a.569.569,0,0,0,.546.54l.127,0c2.871,0,6.4-3.749,8.751-6.243.4-.429.786-.834,1.105-1.156a36.658,36.658,0,0,0,6.719-8.639,32.557,32.557,0,0,1,5.417-6.8,33.958,33.958,0,0,0,5.756-7.3,25.4,25.4,0,0,0,1.347-3.527c1.3-3.912,2.927-8.776,6.287-8.126.941.183,2.5,1.526,3.76,2.6a19.411,19.411,0,0,0,2.317,1.818l.853.508a45.689,45.689,0,0,0,6.077,3.231c4.761,1.925,15.168,3.081,15.608,3.129.021,0,.041,0,.062,0l107.118.633a.569.569,0,0,0,0-1.138l-107.086-.633c-.636-.071-10.783-1.233-15.275-3.05a44.89,44.89,0,0,1-5.92-3.153q-.434-.259-.857-.51a18.931,18.931,0,0,1-2.156-1.7,18.5,18.5,0,0,0-3.463-2.571,13.243,13.243,0,0,1,2.9-.261,16.249,16.249,0,0,1,2.109.242c1.933,5.165,9.163,6.639,14.014,7.628.486.1.948.193,1.379.286,1.221.263,2.557.676,3.97,1.114,4.047,1.254,8.628,2.673,12.36,1.02a20.93,20.93,0,0,0,6.419.849c3.384-.163,9.861-.773,15.221-3.024,8.85-3.717,13.846-10.9,14.85-21.338.1-1.031.308-2.11.529-3.253.059-.3.118-.612.176-.922a43.311,43.311,0,0,0,3.322-3.02c4.084-4.117,5.085-9.7,2.819-15.731l-.274-.724a21.024,21.024,0,0,1-1.761-7c-.028-.6-.028-1.193-.027-1.763,0-2.27.006-4.415-1.825-6.479-.707-.8-1.282-1.341-1.743-1.777-1.159-1.1-1.639-1.549-2.26-4.168a35.334,35.334,0,0,0-2.544-7.683c-2.909-5.768-7.578-9.592-11.761-12.573a54.221,54.221,0,0,1-4.386-3.637c-2.481-2.206-5.046-4.487-8.005-5.789a15.907,15.907,0,0,0-3.039-.912,9.458,9.458,0,0,1-3.708-1.415,13.66,13.66,0,0,1-2.284-2.3c-.374-.439-.753-.883-1.157-1.3a21.8,21.8,0,0,0-.986-6.264c-.265-.828-.559-1.657-.875-2.485a16.366,16.366,0,0,0-.081-6.136c-.808-3.16-4.146-12.723-8.731-15.143a4.329,4.329,0,0,0-3.625-.315.568.568,0,0,0-.312.275c-1.222-.669-2.861-1.3-3.743-.642a1.235,1.235,0,0,0-.322.354c-5.025-1.514-10.145-2.6-14.553,2.8a44.816,44.816,0,0,0-3.072,4.548c-2.413,3.884-5.149,8.285-8.864,9.152a.569.569,0,0,0-.381.8,13.593,13.593,0,0,0,2.728,3.593,12.766,12.766,0,0,0,2.862,2.024,9.517,9.517,0,0,1,2.687,1.981,17.615,17.615,0,0,1,2.066,4.2c.331.832.643,1.619.942,2.219q.434.872.842,1.7a67.515,67.515,0,0,0,5.455,9.69,6.2,6.2,0,0,1-1.935,2.359,6.9,6.9,0,0,0-2.6,3.8,33.439,33.439,0,0,0-.2,8.821c.041.659.081,1.3.11,1.9a19.18,19.18,0,0,0,.989,4.547c.573,1.89,1.114,3.675.83,5.288a5.168,5.168,0,0,1-.747,1.747,4.089,4.089,0,0,0-.72,3.294,5.847,5.847,0,0,0,1.551,2.444,10.316,10.316,0,0,1,.825,1c-2.4.361-2.591,1.8-2.762,3.09a3.446,3.446,0,0,1-1.116,2.532,4.679,4.679,0,0,1-2.65.8c-1,.1-1.944.185-2.442.963a1.627,1.627,0,0,0-.092.163l-.058-.124c-.193-.415-.346-.743-.416-.908-2.022-4.805-3.726-10.035-5.23-14.649-.322-.989-.589-1.975-.871-3.019-.347-1.283-.706-2.609-1.176-3.94l-.142-.4c-1.189-3.374-1.508-4.28-5.339-5.191-5.561-1.321-11.037-2.573-16.886-3.369-1.553-.211-3.31-.618-5.17-1.048-3.728-.863-7.583-1.756-10.787-1.348a6.812,6.812,0,0,1-1.017.02,8.147,8.147,0,0,0-1.35.04.569.569,0,0,0-.458.759A62.364,62.364,0,0,1,199,220.552c.453,2.173.921,4.42,1.554,6.622,1.023,3.561,2.386,7.023,3.7,10.372.606,1.54,1.232,3.131,1.815,4.707.209.565.377,1.1.539,1.621.577,1.845,1.075,3.439,2.961,4.652,1.537.988,4.174,1.392,6.5,1.749.739.113,1.437.22,2.015.335,1.932.386,3.89.744,5.784,1.09q1.493.273,3.006.555a12.721,12.721,0,0,0-6.607.957c-3.877,1.976-6.1,6.01-8.057,9.57-.384.7-.747,1.358-1.118,1.995a41.839,41.839,0,0,1-6.5,8c-.935.973-1.9,1.979-2.867,3.055q-.673.75-1.374,1.524c-3.976,4.4-8.483,9.387-10.931,14.613a16.058,16.058,0,0,0-.854,2.5,11.241,11.241,0,0,1-1.156,3.008,9.581,9.581,0,0,1-1.451,1.707,10.749,10.749,0,0,0-1.174,1.309,24.486,24.486,0,0,0-3.069,2.755c-.691.689-1.474,1.47-2.371,2.277a24.794,24.794,0,0,0-5.919,7.2c-1.662.629-3.208,1.374-4.7,2.1a32.487,32.487,0,0,1-8,3.015,28.773,28.773,0,0,1-4.071.374c-3.487.163-7.093.333-9.3,2.9-1.572,1.829-2.1,3.484-1.561,4.918a4.238,4.238,0,0,0,1.619,1.945,8.5,8.5,0,0,0-3.292.832H21.934a.569.569,0,1,0,0,1.138H144.326a.57.57,0,0,0,.434-.2c.106-.076.911-.555,4.5-.789a23.3,23.3,0,0,0,5.312,1.318l1.865.276a112.735,112.735,0,0,0,14.706,1.534,18.647,18.647,0,0,1,2.048.185c1.556.2,3.36.426,4.619-.49.7.24,1.431.425,2.134.6a13.794,13.794,0,0,1,2.7.861c.727.368,1.408.737,2.067,1.094a23.805,23.805,0,0,0,6.93,2.819A8.9,8.9,0,0,0,193.415,337.316Zm12.884-7.832c.5,3.085-2.989,4.522-5.158,5.109-.373.1-.768.213-1.178.33-2.524.717-5.664,1.609-8.1,1.112a22.581,22.581,0,0,1-6.616-2.705c-.666-.361-1.354-.733-2.1-1.109a14.505,14.505,0,0,0-2.933-.949c-.531-.134-1.067-.269-1.579-.424a5.084,5.084,0,0,0,.6-1.728,3.179,3.179,0,0,0-.456-2.6,2.667,2.667,0,0,0-.549-.535c.779-.592,1.625-1.136,2.491-1.693a31.306,31.306,0,0,0,3.476-2.467,22.735,22.735,0,0,0,4.756-6.223,24.911,24.911,0,0,1,3.224-4.64c3.549-3.77,6.58-1.784,10.774.965.256.168.514.337.775.506a11.825,11.825,0,0,1,1.1.826,5.539,5.539,0,0,1,.891,1.478,13.391,13.391,0,0,1,.465,3.2c.063.832.133,1.745.27,2.645-.044.514-.064,1.032-.084,1.539-.079,2-.153,3.88-1.6,5.115-1.3,1.1-3.947,1.006-6.075.926-.516-.019-1-.038-1.446-.038a24.306,24.306,0,0,1-5.173-.991c-4.516-1.164-9.634-2.483-11.833.906a.569.569,0,0,0,.116.749,10.6,10.6,0,0,0,4.826,2.006c.637.144,1.3.294,1.954.5.675.207,1.378.49,2.123.789a13.7,13.7,0,0,0,4.876,1.311h.031c1.759-.009,3.809-1.072,5.792-2.1C202.29,330.079,204.7,328.83,206.3,329.483Zm-4.979-.154c-.628.3-1.26.625-1.888.95-1.863.966-3.79,1.964-5.274,1.972h-.024a12.918,12.918,0,0,1-4.453-1.229c-.734-.3-1.493-.6-2.213-.821-.7-.214-1.379-.369-2.036-.517a10.706,10.706,0,0,1-3.916-1.444c1.957-2.148,6.361-1.013,10.272,0a24.9,24.9,0,0,0,5.456,1.027c.423,0,.9.018,1.406.037C199.492,329.331,200.412,329.365,201.319,329.329Zm-24.877,1.856a8.657,8.657,0,0,1-3.112-.052,19.489,19.489,0,0,0-2.176-.194,90.4,90.4,0,0,1-11.312-1.048,5.557,5.557,0,0,0,2.021-.712.569.569,0,0,0-.077-1.014,17.731,17.731,0,0,0-2.228-.57c-2.46-.546-7.537-1.673-7.965-3.308a31.829,31.829,0,0,0,5.528.144,30.588,30.588,0,0,1,3.656.018c2.166.218,4.369.512,6.5.8,1.7.226,3.449.46,5.173.654.4.045.8.083,1.194.12a23,23,0,0,1,2.447.315,9.889,9.889,0,0,0-1.624,2.073.569.569,0,0,0-.051.453A3.963,3.963,0,0,0,176.442,331.185Zm.867-4.442a1.742,1.742,0,0,1,.567.465,2.128,2.128,0,0,1,.241,1.71,3.607,3.607,0,0,1-.581,1.535,3.416,3.416,0,0,1-1.953-1.7A9.321,9.321,0,0,1,177.309,326.744Zm-17.682,2.032a15.282,15.282,0,0,1-5.121-.5,17.137,17.137,0,0,0-3.983-.529c-.346.014-.7.031-1.061.053a4.464,4.464,0,0,1-2.609-2.17c-.38-1.016.077-2.287,1.359-3.778,1.891-2.2,5.248-2.358,8.494-2.51a29.565,29.565,0,0,0,4.237-.395,33.865,33.865,0,0,0,8.272-3.106c1.534-.74,3.12-1.5,4.809-2.13a.568.568,0,0,0,.306-.27,23.386,23.386,0,0,1,5.774-7.073c.919-.826,1.714-1.619,2.414-2.317.457-.456.885-.883,1.3-1.275-.494,2.938,1.989,5.125,7.389,6.5a.569.569,0,0,0,.7-.437c.582-2.846-1.79-3.993-3.695-4.913-.495-.239-.974-.471-1.389-.718,1.763-.356,3.585.466,5.5,1.329,2.626,1.186,5.6,2.531,8.6.5a17.364,17.364,0,0,0,3.93-4.164,21.152,21.152,0,0,1,2.822-3.264,21.464,21.464,0,0,1,2.779-1.949q.279-.175.56-.352l-.1.086c-3.418,3.078-7.292,6.566-4.55,11.017a13.877,13.877,0,0,0,1.608,2.046,4.931,4.931,0,0,1,1.607,2.794c-1.675-1.967-5.892-5.617-8.812-5.4a2.645,2.645,0,0,0-2.282,1.594.568.568,0,0,0,.147.681q.11.093.225.186c-2.471-.957-4.933-.859-7.511,1.879a26.14,26.14,0,0,0-3.376,4.843,21.842,21.842,0,0,1-4.514,5.935,30.5,30.5,0,0,1-3.353,2.375,33.171,33.171,0,0,0-3,2.093,16.041,16.041,0,0,0-3.354-.542c-.387-.037-.78-.074-1.174-.118-1.712-.193-3.46-.426-5.15-.651-2.139-.285-4.351-.58-6.536-.8a31.37,31.37,0,0,0-3.8-.023,32.829,32.829,0,0,1-5.132-.1,5.932,5.932,0,0,1,1.179-1.064,16.934,16.934,0,0,1,3.043.328c.639.106,1.3.216,1.932.276a71.754,71.754,0,0,0,13.094.019c8.379-.811,13.8-3.792,15.674-8.623.848-2.184,1.433-4.947-1.592-6.948-2.955-1.955-4.535-.392-6.208,1.264-.171.169-.346.342-.527.517a42.579,42.579,0,0,0-3.211,3.583,21.924,21.924,0,0,1-5.765,5.447c-2.294,1.336-5.189,1.3-7.989,1.266-2.893-.036-5.885-.073-8.28,1.4q-.294.18-.558.359a4.97,4.97,0,0,0-3.626,1.728.569.569,0,0,0,.178.881,6.367,6.367,0,0,0,1.128.423,1.943,1.943,0,0,0,.027.353c.376,2.248,4.4,3.322,8.857,4.31Zm85.521-44.446c-2.117,1.627-3.32,5.235-4.276,8.1a25.319,25.319,0,0,1-1.272,3.353,33.1,33.1,0,0,1-5.576,7.051,33.909,33.909,0,0,0-5.593,7.046,35.608,35.608,0,0,1-6.526,8.379c-.329.332-.716.743-1.125,1.177-1.957,2.078-5.141,5.457-7.487,5.848q-.016-.348-.031-.689c-.192-4.267-.36-7.993-2.62-11.824.454-2.56-.651-3.787-1.819-5.083a12.769,12.769,0,0,1-1.484-1.881c-2.245-3.644.955-6.525,4.343-9.576a37.668,37.668,0,0,0,2.9-2.8,86.89,86.89,0,0,0,10.11-14.474q.278-.372.557-.741a28.394,28.394,0,0,0,4.009-7.408c1.369-2.464,2.784-4.97,4.278-7.419,2.732-4.483,5.2-6.236,9.618-6.236h.1a11.57,11.57,0,0,0,4.2.4,128.511,128.511,0,0,1,15.688,3.863l.579.169c2.562.746,11.057,2.994,12.795.631a1.659,1.659,0,0,0,.307-.731,7.574,7.574,0,0,0,1.968.871c.711,3.047,1.884,6.025,3.286,7.566a4.522,4.522,0,0,0,1.058.84c.208,2.292.459,3.7.986,4.31a.572.572,0,0,0,.459.2c1.51-.078,3.073-.084,4.644-.059a17.881,17.881,0,0,1,.511,4.165l.026.566c.218,4.427.515,10.458-3.857,12.711-1.941-.553-3.859-1.276-5.664-1.956-.958-.361-1.863-.7-2.756-1.015-3.524-1.234-7.118-2.3-10.593-3.337-2.067-.615-4.205-1.251-6.272-1.906-.409-.13-.811-.261-1.21-.391a41.946,41.946,0,0,0-4.246-1.221c-.454-1.712-.088-3.818.3-6.047.725-4.177,1.547-8.911-3.32-11.823a.568.568,0,0,0-.736.132c-.916,1.141-.436,3.6.118,6.45s1.186,6.09.193,7.448a1.519,1.519,0,0,1-.68.524c-.737-6.827-2.61-11.242-5.715-13.488a.569.569,0,0,0-.724.048c-1.968,1.862-.222,5,1.465,8.027a16.857,16.857,0,0,1,2.067,4.634,7.724,7.724,0,0,1-2.218-1.984c-1.074-1.226-2.185-2.493-3.951-2.5h0a.569.569,0,0,0-.53.363c-.71,1.826.232,3.353,1.063,4.7.819,1.328,1.592,2.581.975,4.1a.568.568,0,0,0,.412.771A7.5,7.5,0,0,0,245.149,284.33ZM208.615,317.3a11.186,11.186,0,0,1,2.338,4.954,3.015,3.015,0,0,1-.6,2.348c-1.723-.324-2.4-1.882-2.749-4.075a10.172,10.172,0,0,1,.143-1.014A8.022,8.022,0,0,1,208.615,317.3ZM150.9,322.7c-.058.085-.111.168-.159.253l-.151-.044Q150.744,322.793,150.9,322.7Zm31.849-15.291a3.534,3.534,0,0,1,1.906.72c2.2,1.454,2.053,3.285,1.159,5.588-2.16,5.563-9.2,7.368-14.723,7.9a70.525,70.525,0,0,1-12.877-.019c-.593-.057-1.205-.158-1.853-.266-.472-.079-.956-.159-1.444-.222,1.932-.776,4.236-.748,6.652-.717,2.953.036,6.008.075,8.575-1.42a22.794,22.794,0,0,0,6.068-5.7,41.65,41.65,0,0,1,3.125-3.49c.185-.179.364-.355.538-.528C180.968,308.172,181.74,307.408,182.751,307.408Zm27.433,6.912a18.735,18.735,0,0,1,1.744,6.953,14.607,14.607,0,0,0-2.71-5.053A17.069,17.069,0,0,0,210.184,314.32Zm-2.332,2.005c-.2.353-.392.713-.567,1.081-.056-.711-.118-1.39-.222-1.989C207.328,315.71,207.593,316.013,207.851,316.325Zm1.584-3.344a9.566,9.566,0,0,1-.989,2.29,25.2,25.2,0,0,0-2.808-2.816,24.529,24.529,0,0,0-4.324-3.721c-.561-.412-1.1-.807-1.571-1.183a1.45,1.45,0,0,1,1.112-.575c2.505-.181,7.1,3.8,8.282,5.547Q209.292,312.752,209.435,312.981Zm-21.74-11a5.32,5.32,0,0,0-2.321.521.569.569,0,0,0-.155.92,9.355,9.355,0,0,0,2.5,1.528c1.912.924,3.139,1.631,3.14,3.055-4.468-1.249-6.435-3.049-5.85-5.354a4.272,4.272,0,0,1,.577-1.322c1.638-1.1,3.539-1.606,6.789-1.269a17.581,17.581,0,0,0,14.518-4.606,90.841,90.841,0,0,0,12.368-12.811c2.08-2.769,2.039-4.146,1.977-6.231-.02-.659-.042-1.407.006-2.3a5.441,5.441,0,0,1,.225-1.531,10.277,10.277,0,0,1,1.219,1.414,19.254,19.254,0,0,0,1.624,1.915.568.568,0,0,0,.75.041l.076-.061q-.687,1.223-1.382,2.427c-1.007,1.352-2.018,2.772-3,4.152a104.142,104.142,0,0,1-7.352,9.529,16.323,16.323,0,0,1-3.554,2.7,22.725,22.725,0,0,0-2.924,2.057,22.036,22.036,0,0,0-2.982,3.437,16.275,16.275,0,0,1-3.66,3.908c-2.471,1.677-4.91.575-7.493-.592A12.875,12.875,0,0,0,187.695,301.981Zm2.81-3.163a11.207,11.207,0,0,0-2.964.358,8.206,8.206,0,0,0,.833-1.1,12.258,12.258,0,0,0,1.288-3.306,15,15,0,0,1,.789-2.326c2.375-5.072,6.822-9.993,10.745-14.334q.7-.775,1.377-1.527c.951-1.061,1.911-2.059,2.84-3.026a42.7,42.7,0,0,0,6.665-8.213c.377-.649.743-1.314,1.131-2.018,1.881-3.416,4.012-7.287,7.577-9.1,3.422-1.745,8.976-.556,13.439.4.728.156,1.422.3,2.069.431a29.069,29.069,0,0,1,3.069.916c.328.109.665.222,1.007.334-3.226.689-5.491,2.706-7.8,6.493-.858,1.407-1.688,2.829-2.5,4.251a8.468,8.468,0,0,0-.092-1.962,5.614,5.614,0,0,0-2.529-3.895.57.57,0,0,0-.594-.018c-2.333,1.334-1.934,4.335-1.548,7.237.32,2.406.65,4.887-.572,6.286-.4-.446-.792-.948-1.145-1.4-.962-1.24-1.657-2.137-2.474-1.882-.729.228-.929,1.218-1.005,2.634-.051.945-.028,1.718-.007,2.4a6.9,6.9,0,0,1-1.749,5.514A89.824,89.824,0,0,1,206.141,294.6a16.328,16.328,0,0,1-13.647,4.327A19.242,19.242,0,0,0,190.5,298.819Zm131.334-31.57c-.2,1.036-.381,2.024-.474,3-.961,9.993-5.724,16.856-14.158,20.4-5.2,2.184-11.527,2.778-14.835,2.937a18.207,18.207,0,0,1-4.947-.529c3.978-2.919,3.678-9.006,3.473-13.161l-.026-.561a20.632,20.632,0,0,0-.458-4.09c.812.02,1.623.045,2.426.07,1.855.058,3.774.121,5.66.11A39.4,39.4,0,0,0,321.839,267.248Zm-37.753,26.04c-3.094.64-6.786-.5-10.1-1.53-1.439-.445-2.8-.866-4.068-1.14-.434-.093-.9-.189-1.391-.289-4.354-.888-10.734-2.189-12.861-6.216,1.136.282,2.247.644,3.391,1.017.4.131.807.263,1.219.393,2.076.658,4.219,1.3,6.291,1.912,3.462,1.03,7.043,2.1,10.542,3.321.881.308,1.779.647,2.731,1.006C281.2,292.277,282.627,292.814,284.085,293.289Zm-32.3-10.86a18.415,18.415,0,0,0-3.334.4,13.346,13.346,0,0,1-3.721.335c.4-1.742-.486-3.172-1.275-4.451-.709-1.15-1.332-2.159-1.092-3.289,1.038.193,1.81,1.074,2.689,2.076a6.656,6.656,0,0,0,3.549,2.586.569.569,0,0,0,.675-.486c.214-1.677-.969-3.8-2.223-6.053-1.34-2.408-2.722-4.89-1.973-6.265,2.63,2.209,4.273,6.574,4.886,12.988a.569.569,0,0,0,.632.511,2.8,2.8,0,0,0,2.033-1.119c1.287-1.76.636-5.1.006-8.337-.368-1.888-.777-3.989-.55-5.043,3.6,2.519,2.944,6.307,2.249,10.307a17.749,17.749,0,0,0-.392,6.021,17.159,17.159,0,0,0-1.719-.169Q252.008,282.429,251.789,282.429Zm70.37-16.87a38.461,38.461,0,0,1-23.664,8.72c-1.867.009-3.776-.052-5.621-.109-.939-.029-1.89-.059-2.842-.079a5.519,5.519,0,0,0-1.1-1.7,8.223,8.223,0,0,0-3.23-1.75c-.524-.191-1.033-.377-1.493-.594-.066-.8-.125-1.635-.182-2.441-.38-5.42-.81-11.564-3.2-12.931a2.353,2.353,0,0,0-2.2-.041c-.379-.314-.763-.6-1.127-.854a33.972,33.972,0,0,0-9.123-4.008c-1.548-.507-3.148-1.03-4.641-1.644-5.37-2.208-9.593-2.665-14.386-1.522.565-1.74,1.707-1.6,3.8-1.181a16.451,16.451,0,0,0,1.741.284c3.493.315,6.239-.427,7.942-2.146,1.586-1.6,2.236-3.952,1.932-6.989a41.567,41.567,0,0,0-1.21-5.757c-.812-3.169-1.649-6.434-1.371-8.945a72.439,72.439,0,0,1,3.17,12.181c.137.924.231,2.04.331,3.221.283,3.371.6,7.19,2.1,9.545.522.824,1.238,1.753,2.142,1.646,1.079-.132,1.573-1.613,2.2-3.488.065-.194.13-.391.2-.589a40.613,40.613,0,0,0,1.621-9.058,41.062,41.062,0,0,1,1.464-8.486,19.294,19.294,0,0,1,2.675-5.73q-.182.662-.327,1.332c-1.219,5.7-2.3,11.285-2.083,16.878.139,3.666.823,4.271,2.852,6.067.233.206.486.43.76.678a4.871,4.871,0,0,1,1.911,3.858,13.864,13.864,0,0,0,.413,2.388c.909,3.291,2.46,3.152,4.806,2.937.456-.042.972-.088,1.534-.116,1.46-.073,2.863-.057,4.219-.041,1.305.015,2.654.031,4.024-.035.73-.035,1.735.012,2.8.061,2.4.112,5.116.239,6.665-.435,3.518-1.53,2.247-4.51,1.226-6.9-.2-.458-.4-.932-.569-1.391-.774-2.069-1.64-4.144-2.478-6.151-.7-1.67-1.418-3.4-2.083-5.114-.207-.535-.478-1.169-.792-1.9-1.293-3.025-3.246-7.6-2.544-9.826.249-.792.519-1.077.674-1.08h.005c.593,0,2.051,2.062,2.983,4.64a23.341,23.341,0,0,1,1.114,5.812c.086.833.175,1.7.307,2.574.079.528.126,1.083.175,1.671.2,2.329.418,4.969,2.988,5.662a4.047,4.047,0,0,0,3.265-.656,4.991,4.991,0,0,1,1.456-.621,12.528,12.528,0,0,1,3.69-.073c-.365,1.8-2.793,2.723-4.956,3.545a14.716,14.716,0,0,0-2.9,1.328.568.568,0,0,0-.185.728c.492.963,2.462,1.18,6.514,1.542,3.836.342,9.09.811,10.189,2.523a1.357,1.357,0,0,1,.079,1.267.822.822,0,0,1-.5.574c-1.042.372-3.285-.98-4.624-1.79a14.94,14.94,0,0,0-1.331-.753c-2.675-1.208-5.61-2.177-8.943-1.1a.569.569,0,0,0-.393.562c.065,1.747,3.037,2.865,6.479,4.16,2.61.981,5.567,2.093,6.566,3.354C322.954,259.657,322.69,262.608,322.159,265.559Zm-34.5,8.5c-.946,0-1.885.016-2.809.057a11.16,11.16,0,0,1-.519-2.777c.325.131.655.251.983.371a7.33,7.33,0,0,1,2.8,1.469,4.108,4.108,0,0,1,.642.886Q288.209,274.062,287.662,274.062Zm-59.454-3.7q-.5.9-.989,1.785l-.6,1.087a16.63,16.63,0,0,0-.183-4.973c-.33-2.481-.643-4.833.7-5.9a4.45,4.45,0,0,1,1.727,2.922A10.654,10.654,0,0,1,228.207,270.364Zm51.543-14.839a1.011,1.011,0,0,1,.52.141c1.86,1.066,2.3,7.4,2.628,12.024q.058.831.113,1.568c-.032-.032-.063-.064-.093-.1-1.228-1.349-2.294-4.09-2.967-6.914a2.693,2.693,0,0,0,1.24-2.056,5.056,5.056,0,0,0-1.588-4.656A1.211,1.211,0,0,1,279.75,255.525Zm4.8-63.947.315.368a14.721,14.721,0,0,0,2.483,2.481,10.493,10.493,0,0,0,4.124,1.6,15.019,15.019,0,0,1,2.831.844c2.795,1.23,5.292,3.45,7.708,5.6a55.041,55.041,0,0,0,4.482,3.713c4.07,2.9,8.608,6.612,11.405,12.158a34.317,34.317,0,0,1,2.453,7.433c.7,2.95,1.37,3.583,2.586,4.732.469.443,1,.945,1.674,1.705,1.543,1.74,1.541,3.585,1.538,5.722,0,.584,0,1.189.028,1.819a22.21,22.21,0,0,0,1.834,7.353l.273.721c2.1,5.586,1.191,10.746-2.562,14.529q-1.079,1.088-2.225,2.087c.379-2.713.34-5.513-1.534-7.877-1.2-1.507-4.175-2.628-7.058-3.712-2.094-.788-4.861-1.828-5.571-2.738,2.573-.651,4.9.014,7.559,1.214.275.124.709.386,1.212.69,1.706,1.031,4.045,2.442,5.6,1.887a1.972,1.972,0,0,0,1.193-1.265,2.473,2.473,0,0,0-.194-2.262c-1.4-2.181-6.524-2.638-11.045-3.041a37.4,37.4,0,0,1-4.981-.644c.543-.256,1.19-.5,1.861-.757,2.575-.978,5.779-2.2,5.736-5.138a.569.569,0,0,0-.524-.559l-.442-.036a14,14,0,0,0-4.122.079,5.943,5.943,0,0,0-1.794.744,2.963,2.963,0,0,1-2.416.552c-1.675-.452-1.939-2.139-2.151-4.66-.049-.58-.1-1.18-.184-1.745-.128-.853-.216-1.7-.3-2.521a24.573,24.573,0,0,0-1.175-6.082c-.08-.221-1.974-5.39-4.056-5.39h-.026c-.765.016-1.349.647-1.735,1.876-.828,2.632,1.144,7.246,2.583,10.614.31.725.577,1.351.778,1.868.67,1.73,1.394,3.464,2.094,5.141.833,2,1.7,4.063,2.462,6.112.181.482.388.968.588,1.438,1.181,2.769,1.733,4.386-.633,5.415-1.307.568-4,.442-6.159.341-1.091-.051-2.122-.1-2.907-.061-1.336.064-2.609.049-3.956.034-1.373-.016-2.794-.032-4.289.043-.585.029-1.114.077-1.58.119-2.325.212-2.95.268-3.606-2.107a12.708,12.708,0,0,1-.379-2.2,5.968,5.968,0,0,0-2.279-4.582c-.278-.251-.534-.478-.769-.687-1.944-1.721-2.348-2.079-2.469-5.259-.208-5.462.856-10.967,2.059-16.6a27.273,27.273,0,0,1,.942-3.273,12.841,12.841,0,0,1,2.736-1.307,9.018,9.018,0,0,0,4.84-3.339c1.952-2.9,2.025-11.79.138-16.982-.8-2.194-1.858-3.578-3.156-4.119Q284.5,192.609,284.545,191.579Zm-8.88,69.29a.808.808,0,0,1-.067.678c-.911,1.239-6.636.383-11.56-1.049l-.579-.169c-4.562-1.329-9.259-2.7-14.006-3.58a3.931,3.931,0,0,0,1.335-3.1c1.673.345,3.354.747,4.989,1.139.828.2,1.654.4,2.479.586.9.207,2.311.411,3.949.647.942.136,2.022.292,3.149.472l1.334.6c2.611,1.173,5.31,2.385,8,3.35A9.226,9.226,0,0,1,275.666,260.868Zm2.423-5.208a22.008,22.008,0,0,0,.431,5.419,13.85,13.85,0,0,1-1.24-.638c-.22-.122-.45-.25-.689-.377a6.139,6.139,0,0,0-.551-1c-1.279-1.927-5.947-2.957-10.365-3.667-1.658-.739-3.344-1.474-5.014-2.122l-.247-.1a26.8,26.8,0,0,1-4.062-1.789,14.037,14.037,0,0,1,3.425-.521.569.569,0,0,0,.24-1.06c-2.907-1.677-4.841-.995-6.711-.336-.35.124-.712.251-1.079.362a7.964,7.964,0,0,1-2.357.413c-.123-.336-.241-.666-.342-.989a.569.569,0,0,0,.051-.548,2.69,2.69,0,0,1-.091-.662c-.006-.1-.013-.193-.021-.29,4.608-1.129,8.66-.7,13.846,1.43,1.532.63,3.153,1.16,4.72,1.673a33.133,33.133,0,0,1,8.823,3.858C277.267,255,277.69,255.319,278.089,255.661Zm1.108,1.127a3.69,3.69,0,0,1,.883,3.162,3.016,3.016,0,0,1-.4,1.062A24.432,24.432,0,0,1,279.2,256.787Zm-8.819.7a11.834,11.834,0,0,1,4.28,1.735C273.233,258.7,271.8,258.1,270.378,257.487Zm-22.469-1.19a3.628,3.628,0,0,1-.441.111l-.335-.051q-1.213-.182-2.294-.265.054-.026.1-.055a4.117,4.117,0,0,0,.81-.577,2.63,2.63,0,0,0,1.01.684A2.134,2.134,0,0,0,247.909,256.3Zm1.724-2.876a2.836,2.836,0,0,1-.039.947,2.451,2.451,0,0,1-1.172,1.708l0,0a1.211,1.211,0,0,0,.165-.149c.447-.483.541-1.343.24-2.724l.03.009C249.128,253.3,249.389,253.371,249.633,253.421Zm-2.046-.5c.439,1.582.306,2.08.163,2.235-.04.042-.227.057-.584-.077a1.434,1.434,0,0,1-.881-.945.975.975,0,0,1,.234-.912A1.156,1.156,0,0,1,247.587,252.922Zm-44.8-38.816a2.736,2.736,0,0,0-2,.629c-.659.625-.869,1.681-.683,3.422a24.263,24.263,0,0,0,1.421,5.178c.359,1.017.7,1.978.934,2.873a104.09,104.09,0,0,0,5.687,15.8c2.31,5.246,6.769,5.945,11.49,6.685.4.063.8.126,1.21.193,4.645.76,9.449,1.748,14.1,2.7q2.39.492,4.784.977l.391.074c4.665.863,5.017,1.586,5.04,1.722.008.047-.1.3-.777.689-.84.481-4.579-.79-6.177-1.333-.713-.243-1.276-.434-1.657-.534-4.148-1.082-8.38-1.856-12.471-2.6-1.889-.346-3.842-.7-5.766-1.087-.6-.12-1.313-.229-2.065-.344-2.1-.323-4.724-.724-6.058-1.581-1.539-.989-1.938-2.266-2.49-4.034-.167-.533-.339-1.083-.558-1.676-.587-1.586-1.216-3.184-1.823-4.729-1.308-3.324-2.66-6.761-3.668-10.269-.621-2.162-1.085-4.388-1.534-6.54a70.071,70.071,0,0,0-2.047-8.165c.149,0,.3,0,.455.009a7.709,7.709,0,0,0,1.192-.03c3-.381,6.756.488,10.387,1.328,1.886.437,3.667.849,5.273,1.067,5.8.789,11.244,2.034,16.776,3.348,3.227.767,3.375,1.187,4.529,4.462l.142.4c.429,1.213.767,2.439,1.089,3.631-.718-2.2-1.543-4.636-2.9-5.938-1.488-1.427-4-1.684-6.223-1.91-.813-.083-1.581-.162-2.236-.29-6.257-1.23-13.642-2.645-20.973-3.819A18.926,18.926,0,0,0,202.783,214.107Zm54.61,35.875c-1.8.283-2.246.673-2.327,1.219-.15,1.018,1.314,1.629,4.937,3.035l.247.1q.51.2,1.023.407c-1.141-.168-2.109-.321-2.759-.47-.822-.19-1.646-.387-2.47-.585-1.777-.425-3.608-.863-5.435-1.23-.088-.359-.2-.718-.326-1.077a9.984,9.984,0,0,0,2.276-.456c.39-.119.764-.251,1.126-.378A6.742,6.742,0,0,1,257.392,249.982ZM246.254,252a2.011,2.011,0,0,0-.594.472,2.322,2.322,0,0,0-.346.524,16.489,16.489,0,0,0-4.992-1.479c-.155-.028-.282-.052-.374-.071q-2.391-.481-4.779-.976c-4.658-.958-9.473-1.949-14.141-2.713q-.614-.1-1.218-.194c-4.6-.72-8.566-1.342-10.625-6.019a103.045,103.045,0,0,1-5.628-15.63c-.248-.94-.594-1.922-.961-2.962a23.478,23.478,0,0,1-1.362-4.921c-.141-1.318-.032-2.128.335-2.475.53-.5,1.921-.327,3.829-.021,7.313,1.171,14.686,2.584,20.933,3.811.706.139,1.5.22,2.34.306,2.037.208,4.345.444,5.551,1.6s2.021,3.673,2.682,5.7c.237.729.462,1.417.685,1.993,1.142,2.941,2.04,6,2.908,8.951.9,3.062,1.83,6.229,3.03,9.249.1.253.2.522.3.8C244.341,249.334,244.991,251.09,246.254,252Zm2.794-.7c.108.3.211.587.3.872l-.175-.051c-.187-.055-.386-.113-.592-.166a.574.574,0,0,0-.028-.106,3.694,3.694,0,0,1-.2-.759A3.673,3.673,0,0,0,249.048,251.3Zm-7.082-12.435c.677,1.87,1.393,3.737,2.155,5.547.078.185.226.5.433.947,1.168,2.51,1.945,4.382,2.452,5.778-1.031-.669-1.6-2.2-2.111-3.584-.106-.287-.209-.564-.312-.825C243.569,244.176,242.744,241.5,241.966,238.867Zm6.248,9.872a2.442,2.442,0,0,0-.5.448,5.42,5.42,0,0,1-.742-1.48c-.5-1.44-.432-2.019-.284-2.252.2-.311.845-.373,1.592-.444.225-.022.462-.044.705-.076a3.87,3.87,0,0,0-.768,1.5A4.636,4.636,0,0,0,248.214,248.738ZM278.861,218.7a7.343,7.343,0,0,0-.7.612c-1.943,1.92-2.987,4.588-3.826,7.184a41.9,41.9,0,0,0-1.512,8.721,39.749,39.749,0,0,1-1.566,8.807c-.068.2-.135.4-.2.595-.312.935-.892,2.674-1.257,2.718,0,0-.326.006-1.044-1.126-1.343-2.119-1.652-5.791-1.924-9.031-.1-1.2-.2-2.334-.339-3.294a76.8,76.8,0,0,0-3.427-13.015l-.3-.92a4.789,4.789,0,0,1,2.179-1.664,8.3,8.3,0,0,0,2.172-1.412A10.716,10.716,0,0,0,269,214.323a5.38,5.38,0,0,1,2.673-2.667c5.694-2.656,9.022-4.491,11.218-11.332q.243-.759.452-1.509c-.057,2.823-.258,5.5-.454,7.539a31.912,31.912,0,0,1-2.667,8.857C279.76,216.355,279.286,217.519,278.861,218.7Zm-17.33,1.156a5.018,5.018,0,0,0-.28.819c-.724,2.879.259,6.716,1.21,10.426a40.775,40.775,0,0,1,1.18,5.588c.268,2.683-.273,4.727-1.608,6.074-1.456,1.47-3.887,2.1-7.031,1.813a15.681,15.681,0,0,1-1.62-.267,12.382,12.382,0,0,0-1.921-.281l.09-.072a4.53,4.53,0,0,0,1.52-3.261c.18-1.351.279-2.095,2.546-2.181a.568.568,0,0,0,.518-.748,6.189,6.189,0,0,0-1.408-2.067,4.957,4.957,0,0,1-1.291-1.95,3,3,0,0,1,.6-2.453,6.237,6.237,0,0,0,.886-2.123c.332-1.881-.275-3.881-.862-5.816a18.369,18.369,0,0,1-.941-4.272c-.029-.611-.069-1.255-.111-1.92a32.693,32.693,0,0,1,.175-8.5,5.808,5.808,0,0,1,2.244-3.195,8.411,8.411,0,0,0,1.947-2.172c1.555,2.109,1.87,4.893,2.2,7.838a31.436,31.436,0,0,0,1.01,5.729C260.894,217.892,261.214,218.887,261.531,219.86Zm15.94-12.828a28.139,28.139,0,0,1-6.274,3.593,6.454,6.454,0,0,0-3.177,3.128,9.641,9.641,0,0,1-1.7,2.311,7.3,7.3,0,0,1-1.893,1.212,7.363,7.363,0,0,0-2.088,1.383q-.337-1.044-.67-2.121a30.577,30.577,0,0,1-.967-5.523,30.721,30.721,0,0,0-.878-5.154,6.361,6.361,0,0,0,3.189,2.472c3.591,1.136,6.588-1.631,7.959-3.229.533.287.986.572,1.4.829A5.812,5.812,0,0,0,277.471,207.031Zm6.993-12.007a6.738,6.738,0,0,1,2,3.152c1.9,5.233,1.6,13.562-.013,15.959a7.994,7.994,0,0,1-4.3,2.912c-.569.219-1.146.441-1.713.713.277-.714.565-1.421.85-2.121a33.235,33.235,0,0,0,2.745-9.177A91.871,91.871,0,0,0,284.463,195.024Zm-13.636,8.8a.569.569,0,0,0-.445.213c-1.044,1.305-3.819,4.231-7.027,3.216-1.6-.506-2.489-1.829-3.432-3.23a13.377,13.377,0,0,0-2.194-2.709.568.568,0,0,0-.493-.129,69.541,69.541,0,0,1-5.066-9.111q-.411-.834-.844-1.706c-.278-.557-.581-1.322-.9-2.132a18.153,18.153,0,0,0-2.255-4.518,10.541,10.541,0,0,0-2.989-2.233,11.861,11.861,0,0,1-2.621-1.839,14.04,14.04,0,0,1-2.187-2.69c3.8-1.3,6.48-5.619,8.864-9.455a44.209,44.209,0,0,1,2.987-4.429c3.991-4.885,8.6-3.869,13.485-2.388a3.78,3.78,0,0,0,.1.53c-6.227.661-11.2,2.038-15.115,6.256-.254.274-.58.6-.925.939-1.85,1.832-4.383,4.342-3.691,6.643.58,1.929,2.425,2.427,4.052,2.866,1.267.342,2.392.646,2.931,1.5a10.439,10.439,0,0,1-4.512-1.224c-1.747-.767-3.553-1.56-5.678-1.141a.569.569,0,0,0-.456.615,3.006,3.006,0,0,0,1.6,2.431c.168.121.35.25.542.4,4.3,3.367,11.625,2.777,14.791-1.19a4.677,4.677,0,0,0,.62-1.255c.242-.633.491-1.288.917-1.427.8-.262.853-.169,1.139.344a3.21,3.21,0,0,0,1.23,1.357,18.477,18.477,0,0,0,2.173,1.039,6.559,6.559,0,0,1,3.385,2.384,8.371,8.371,0,0,1,.66,1.683c.5,1.539,1.067,3.284,2.324,3.871a2.246,2.246,0,0,0,1.849-.012c1.226-.494,1.414-2.111,1.6-3.675.155-1.335.316-2.715,1.041-3.18a1.83,1.83,0,0,1,2.062-.176c1.161.7,1.842,2.733,1.728,4.122a7.655,7.655,0,0,1-1.168,2.976,6.2,6.2,0,0,0-1.171,3.987.569.569,0,0,0,.652.473,4.207,4.207,0,0,0,2.074-.894c.012.995.13,2.03.246,3.046a16.075,16.075,0,0,1,.145,4.116c-.409,2.488-1.593,5.938-3.243,7.754a4.836,4.836,0,0,1-4.632-.867,21.232,21.232,0,0,0-1.891-1.09A.566.566,0,0,0,270.828,203.82Zm12.609-13.442a31.673,31.673,0,0,1-1.625,9.6,20.862,20.862,0,0,1-1.279,3.164,21.961,21.961,0,0,0,1.438-4.873,16.809,16.809,0,0,0-.137-4.429,16.371,16.371,0,0,1-.114-4.6l.082-.059A6.66,6.66,0,0,1,283.436,190.377Zm-2.247-5.761c0,.04,0,.08-.005.121l-.013.366c-.091,2.564-.342,4.753-2.336,5.433a6.984,6.984,0,0,1,1.059-2.626A8.8,8.8,0,0,0,281.189,184.616Zm1.211-.938q.051.154.1.309a20.1,20.1,0,0,1,.889,4.848,6.724,6.724,0,0,0-1.365-.813,16.5,16.5,0,0,0,.283-2.879l.013-.361C282.334,184.422,282.362,184.054,282.4,183.678Zm-4.9-4.8a3.382,3.382,0,0,0-1.838.6c-1.178.757-1.371,2.408-1.556,4.006-.144,1.234-.292,2.51-.892,2.752a1.145,1.145,0,0,1-.942.036c-.809-.378-1.316-1.938-1.724-3.191a8.617,8.617,0,0,0-.8-1.964,7.642,7.642,0,0,0-3.887-2.8,17.548,17.548,0,0,1-2.045-.975,2.118,2.118,0,0,1-.808-.927c-.418-.75-.923-1.38-2.485-.872-.942.307-1.322,1.3-1.627,2.1a4.107,4.107,0,0,1-.446.95c-2.759,3.457-9.421,3.964-13.2,1-.206-.161-.4-.3-.581-.43-.541-.387-.859-.614-1.019-1.082a9.249,9.249,0,0,1,4.436,1.144c1.776.78,3.613,1.586,5.87,1.24a.569.569,0,0,0,.467-.695c-.482-2.01-2.352-2.514-4-2.96-1.535-.414-2.861-.772-3.259-2.1-.495-1.646,1.851-3.97,3.4-5.507.354-.35.688-.682.958-.972,3.821-4.114,8.8-5.362,15.1-5.97a.569.569,0,0,0,.475-.772c-.063-.162-.113-.306-.151-.435.954.294,1.935.594,2.906.847a.569.569,0,0,0,.683-.37l.108.082c2.216,1.712,3.3,3.864,4.666,6.589.407.811.823,1.627,1.24,2.447,1.775,3.487,3.6,7.07,4.986,10.639q-.029.224-.058.447c-.107.824-.21,1.613-.267,2.382.019-1.718-.8-3.95-2.291-4.846A2.753,2.753,0,0,0,277.5,178.875Zm-5.781-18.437a3.5,3.5,0,0,1,1.645.445c3.907,2.063,7.184,10.605,8.159,14.419a11.67,11.67,0,0,1,.264,3.592c-1.265-2.95-2.757-5.883-4.218-8.752q-.625-1.228-1.237-2.442c-1.377-2.741-2.566-5.109-4.987-6.979-.074-.057-.171-.128-.287-.208A2.985,2.985,0,0,1,271.72,160.438Z" transform="translate(-21.365 -158.316)"/></g></g></svg>