<svg xmlns="http://www.w3.org/2000/svg" width="18.281" height="24" viewBox="0 0 18.281 24"><defs><style>.a{opacity:0.2;}.b{fill:#7f7f7f;}.c{fill:#e5e5e5;}</style></defs><g transform="translate(-131 -13.997)"><g class="a" transform="translate(70 13.997)"><path class="b" d="M63.109,24H77.172a2.112,2.112,0,0,0,2.109-2.109V7.031H74.359A2.112,2.112,0,0,1,72.25,4.922V0H63.109A2.112,2.112,0,0,0,61,2.109V21.891A2.112,2.112,0,0,0,63.109,24ZM65.922,9.891h8.438a.7.7,0,0,1,0,1.406H65.922a.7.7,0,0,1,0-1.406Zm0,2.813h8.438a.7.7,0,0,1,0,1.406H65.922a.7.7,0,0,1,0-1.406Zm0,2.813h8.438a.7.7,0,0,1,0,1.406H65.922a.7.7,0,0,1,0-1.406Zm0,2.813h5.625a.7.7,0,0,1,0,1.406H65.922a.7.7,0,0,1,0-1.406Z"/><path class="b" d="M331.7,14h4.51L331,8.789V13.3A.7.7,0,0,0,331.7,14Z" transform="translate(-257.344 -8.377)"/></g><rect class="c" width="12" height="12" transform="translate(134 22.997)"/></g></svg>